<mxfile host="app.diagrams.net" modified="2023-11-27T03:16:00.982Z" agent="Mozilla/5.0 (Windows NT 10.0; Win64; x64) AppleWebKit/537.36 (KHTML, like Gecko) Chrome/118.0.0.0 Safari/537.36" etag="xkfYlcJDR6XtOtVRhQjc" version="22.1.4" type="github">
  <diagram name="Page-1" id="3e8102d1-ef87-2e61-34e1-82d9a586fe2e">
    <mxGraphModel dx="1434" dy="758" grid="1" gridSize="10" guides="1" tooltips="1" connect="1" arrows="1" fold="1" page="1" pageScale="1" pageWidth="1100" pageHeight="850" background="none" math="0" shadow="0">
      <root>
        <mxCell id="0" />
        <mxCell id="1" parent="0" />
        <mxCell id="70666756c84bb93c-5" value="Community" style="shadow=0;dashed=0;html=1;strokeColor=none;fillColor=#ffffff;labelPosition=center;verticalLabelPosition=bottom;verticalAlign=top;shape=mxgraph.office.users.users;rounded=0;comic=0;fontFamily=Verdana;fontSize=14;fontColor=#FFFFFF;" parent="1" vertex="1">
          <mxGeometry x="350" y="440" width="46" height="50" as="geometry" />
        </mxCell>
        <mxCell id="70666756c84bb93c-6" value="Customer&lt;div&gt;Service&lt;/div&gt;" style="shadow=0;dashed=0;html=1;strokeColor=none;fillColor=#ffffff;labelPosition=center;verticalLabelPosition=bottom;verticalAlign=top;shape=mxgraph.office.users.call_center_agent;rounded=0;comic=0;fontFamily=Verdana;fontSize=14;fontColor=#FFFFFF;" parent="1" vertex="1">
          <mxGeometry x="676" y="413" width="46" height="55" as="geometry" />
        </mxCell>
        <mxCell id="70666756c84bb93c-9" value="Digital&lt;div&gt;Development&lt;/div&gt;" style="shadow=0;dashed=0;html=1;strokeColor=none;fillColor=#ffffff;labelPosition=center;verticalLabelPosition=bottom;verticalAlign=top;shape=mxgraph.office.servers.on_premises_server;rounded=0;comic=0;fontFamily=Verdana;fontSize=14;fontColor=#FFFFFF;" parent="1" vertex="1">
          <mxGeometry x="700" y="282" width="44" height="58" as="geometry" />
        </mxCell>
        <mxCell id="70666756c84bb93c-10" value="Technology&lt;div&gt;Certificates&lt;/div&gt;" style="shadow=0;dashed=0;html=1;strokeColor=none;fillColor=#ffffff;labelPosition=center;verticalLabelPosition=bottom;verticalAlign=top;shape=mxgraph.office.security.token_service;rounded=0;comic=0;fontFamily=Verdana;fontSize=14;fontColor=#FFFFFF;" parent="1" vertex="1">
          <mxGeometry x="450" y="492" width="60" height="56" as="geometry" />
        </mxCell>
        <mxCell id="70666756c84bb93c-11" value="Infrastructure" style="shadow=0;dashed=0;html=1;strokeColor=none;fillColor=#ffffff;labelPosition=center;verticalLabelPosition=bottom;verticalAlign=top;shape=mxgraph.office.concepts.on_premises;rounded=0;comic=0;fontFamily=Verdana;fontSize=14;fontColor=#FFFFFF;" parent="1" vertex="1">
          <mxGeometry x="593" y="490" width="34" height="55" as="geometry" />
        </mxCell>
        <mxCell id="70666756c84bb93c-15" value="Finance" style="shape=mxgraph.signs.travel.euro;html=1;fillColor=#ffffff;strokeColor=none;verticalLabelPosition=bottom;verticalAlign=top;align=center;rounded=0;shadow=0;dashed=0;comic=0;fontFamily=Verdana;fontSize=14;fontColor=#FFFFFF;" parent="1" vertex="1">
          <mxGeometry x="637" y="189" width="45" height="51" as="geometry" />
        </mxCell>
        <mxCell id="5bY-K06hOTvosqH9dxQB-4" style="edgeStyle=orthogonalEdgeStyle;rounded=0;orthogonalLoop=1;jettySize=auto;html=1;" parent="1" source="5bY-K06hOTvosqH9dxQB-1" edge="1">
          <mxGeometry relative="1" as="geometry">
            <mxPoint x="317" y="340" as="targetPoint" />
          </mxGeometry>
        </mxCell>
        <mxCell id="5bY-K06hOTvosqH9dxQB-1" value="" style="shape=mxgraph.signs.animals.bear_1;html=1;pointerEvents=1;fillColor=#000000;strokeColor=none;verticalLabelPosition=bottom;verticalAlign=top;align=center;sketch=0;" parent="1" vertex="1">
          <mxGeometry x="60" y="260" width="98" height="62" as="geometry" />
        </mxCell>
        <mxCell id="5bY-K06hOTvosqH9dxQB-3" style="edgeStyle=orthogonalEdgeStyle;rounded=0;orthogonalLoop=1;jettySize=auto;html=1;" parent="1" source="5bY-K06hOTvosqH9dxQB-2" edge="1">
          <mxGeometry relative="1" as="geometry">
            <mxPoint x="780" y="360" as="targetPoint" />
          </mxGeometry>
        </mxCell>
        <mxCell id="5bY-K06hOTvosqH9dxQB-2" value="" style="shape=mxgraph.signs.science.microscope;html=1;pointerEvents=1;fillColor=#000000;strokeColor=none;verticalLabelPosition=bottom;verticalAlign=top;align=center;sketch=0;" parent="1" vertex="1">
          <mxGeometry x="820" y="70" width="64" height="90" as="geometry" />
        </mxCell>
        <mxCell id="5bY-K06hOTvosqH9dxQB-5" value="" style="shape=mxgraph.signs.animals.snake;html=1;pointerEvents=1;fillColor=#000000;strokeColor=none;verticalLabelPosition=bottom;verticalAlign=top;align=center;sketch=0;" parent="1" vertex="1">
          <mxGeometry x="60" y="400" width="98" height="98" as="geometry" />
        </mxCell>
        <mxCell id="5bY-K06hOTvosqH9dxQB-6" value="" style="shape=mxgraph.signs.animals.teddy_bear;html=1;pointerEvents=1;fillColor=#000000;strokeColor=none;verticalLabelPosition=bottom;verticalAlign=top;align=center;sketch=0;" parent="1" vertex="1">
          <mxGeometry x="150" y="86" width="69" height="99" as="geometry" />
        </mxCell>
        <mxCell id="5bY-K06hOTvosqH9dxQB-7" value="" style="shape=mxgraph.signs.animals.no_dogs;html=1;pointerEvents=1;fillColor=#000000;strokeColor=none;verticalLabelPosition=bottom;verticalAlign=top;align=center;sketch=0;" parent="1" vertex="1">
          <mxGeometry x="290" y="12" width="98" height="98" as="geometry" />
        </mxCell>
        <mxCell id="5bY-K06hOTvosqH9dxQB-8" value="" style="shape=mxgraph.signs.sports.self_guiding_trail;html=1;pointerEvents=1;fillColor=#000000;strokeColor=none;verticalLabelPosition=bottom;verticalAlign=top;align=center;sketch=0;" parent="1" vertex="1">
          <mxGeometry x="150" y="560" width="99" height="99" as="geometry" />
        </mxCell>
        <mxCell id="5bY-K06hOTvosqH9dxQB-9" value="" style="shape=mxgraph.signs.sports.rv;html=1;pointerEvents=1;fillColor=#000000;strokeColor=none;verticalLabelPosition=bottom;verticalAlign=top;align=center;sketch=0;" parent="1" vertex="1">
          <mxGeometry x="350" y="610" width="99" height="62" as="geometry" />
        </mxCell>
        <mxCell id="5bY-K06hOTvosqH9dxQB-10" value="" style="shape=mxgraph.signs.sports.picnic_shelter;html=1;pointerEvents=1;fillColor=#000000;strokeColor=none;verticalLabelPosition=bottom;verticalAlign=top;align=center;sketch=0;" parent="1" vertex="1">
          <mxGeometry x="80" y="630" width="98" height="94" as="geometry" />
        </mxCell>
        <mxCell id="5bY-K06hOTvosqH9dxQB-13" style="edgeStyle=orthogonalEdgeStyle;rounded=0;orthogonalLoop=1;jettySize=auto;html=1;" parent="1" source="5bY-K06hOTvosqH9dxQB-11" target="5bY-K06hOTvosqH9dxQB-12" edge="1">
          <mxGeometry relative="1" as="geometry" />
        </mxCell>
        <mxCell id="5bY-K06hOTvosqH9dxQB-11" value="" style="dashed=0;outlineConnect=0;html=1;align=center;labelPosition=center;verticalLabelPosition=bottom;verticalAlign=top;shape=mxgraph.webicons.amazon_2;gradientColor=#231F20" parent="1" vertex="1">
          <mxGeometry x="930" y="414" width="102.4" height="102.4" as="geometry" />
        </mxCell>
        <mxCell id="5bY-K06hOTvosqH9dxQB-12" value="" style="dashed=0;outlineConnect=0;html=1;align=center;labelPosition=center;verticalLabelPosition=bottom;verticalAlign=top;shape=mxgraph.webicons.android;gradientColor=#DFDEDE" parent="1" vertex="1">
          <mxGeometry x="940" y="548" width="102.4" height="102.4" as="geometry" />
        </mxCell>
        <mxCell id="5bY-K06hOTvosqH9dxQB-14" value="" style="dashed=0;outlineConnect=0;html=1;align=center;labelPosition=center;verticalLabelPosition=bottom;verticalAlign=top;shape=mxgraph.webicons.stackoverflow;gradientColor=#DFDEDE" parent="1" vertex="1">
          <mxGeometry x="722" y="626" width="102.4" height="102.4" as="geometry" />
        </mxCell>
        <mxCell id="5bY-K06hOTvosqH9dxQB-15" value="" style="dashed=0;outlineConnect=0;html=1;align=center;labelPosition=center;verticalLabelPosition=bottom;verticalAlign=top;shape=mxgraph.webicons.twitter;fillColor=#49EAF7;gradientColor=#137BD0" parent="1" vertex="1">
          <mxGeometry x="627" y="659" width="102.4" height="102.4" as="geometry" />
        </mxCell>
      </root>
    </mxGraphModel>
  </diagram>
</mxfile>
